<?xml version="1.0" encoding="utf-8"?>
<!-- Generator: Adobe Illustrator 18.1.1, SVG Export Plug-In . SVG Version: 6.00 Build 0)  -->
<!DOCTYPE svg PUBLIC "-//W3C//DTD SVG 1.1//EN" "http://www.w3.org/Graphics/SVG/1.1/DTD/svg11.dtd">
<svg version="1.1" id="Layer_1" xmlns="http://www.w3.org/2000/svg" xmlns:xlink="http://www.w3.org/1999/xlink" x="0px" y="0px"
    width="12px" height="12px" viewBox="-313 235 12 12" enable-background="new -313 235 12 12" xml:space="preserve">
<path fill="#000000" d="M-302,235h-10c-0.5,0-1,0.5-1,1v10c0,0.5,0.5,1,1,1h10c0.5,0,1-0.5,1-1v-10C-301,235.5-301.5,235-302,235z
     M-302,245c0,0.5-0.5,1-1,1h-8c-0.5,0-1-0.5-1-1v-6c0-0.5,0.5-1,1-1h8c0.5,0,1,0.5,1,1V245z"/>
<path fill="#000000" d="M-309,241.7l0.7-0.7l0,0l1.8-1.8c0.2-0.2,0.5-0.2,0.7,0l0.7,0.7c0.2,0.2,0.2,0.5,0,0.7l-1.5,1.5l1.5,1.5
    c0.2,0.2,0.2,0.5,0,0.7l-0.7,0.7c-0.2,0.2-0.5,0.2-0.7,0l-2.5-2.6C-309.3,242.2-309.3,241.9-309,241.7z"/>
</svg>
